<svg xmlns="http://www.w3.org/2000/svg" xmlns:xlink="http://www.w3.org/1999/xlink" width="150" zoomAndPan="magnify" viewBox="0 0 112.5 44.999999" height="60" preserveAspectRatio="xMidYMid meet" version="1.0"><defs><g/><clipPath id="f4bac9935b"><path d="M 52 1.5625 L 58 1.5625 L 58 7 L 52 7 Z M 52 1.5625 " clip-rule="nonzero"/></clipPath><clipPath id="07cc8fe970"><path d="M 30.027344 27 L 82.527344 27 L 82.527344 33.8125 L 30.027344 33.8125 Z M 30.027344 27 " clip-rule="nonzero"/></clipPath></defs><path fill="#dda62b" d="M 70.394531 20.425781 C 70.394531 20.539062 70.484375 20.660156 70.59375 20.703125 L 72.84375 21.515625 C 72.957031 21.554688 73.046875 21.5 73.046875 21.386719 L 73.046875 21.121094 C 73.046875 21.011719 72.957031 20.886719 72.84375 20.847656 L 70.59375 20.035156 C 70.484375 19.996094 70.394531 20.050781 70.394531 20.164062 L 70.394531 20.425781 " fill-opacity="1" fill-rule="nonzero"/><path fill="#dda62b" d="M 67.21875 21.753906 C 67.21875 21.828125 67.28125 21.847656 67.355469 21.792969 L 68.894531 20.710938 C 68.972656 20.65625 69.035156 20.550781 69.035156 20.472656 L 69.035156 20.292969 C 69.035156 20.214844 68.972656 20.199219 68.894531 20.253906 L 67.355469 21.335938 C 67.28125 21.386719 67.21875 21.496094 67.21875 21.570312 L 67.21875 21.753906 " fill-opacity="1" fill-rule="nonzero"/><path fill="#dda62b" d="M 67.21875 23.554688 C 67.21875 23.632812 67.28125 23.648438 67.355469 23.597656 L 68.894531 22.515625 C 68.972656 22.460938 69.035156 22.355469 69.035156 22.277344 L 69.035156 22.097656 C 69.035156 22.019531 68.972656 22.003906 68.894531 22.058594 L 67.355469 23.136719 C 67.28125 23.191406 67.21875 23.296875 67.21875 23.375 L 67.21875 23.554688 " fill-opacity="1" fill-rule="nonzero"/><path fill="#dda62b" d="M 70.394531 22.332031 C 70.394531 22.441406 70.484375 22.566406 70.59375 22.605469 L 72.84375 23.417969 C 72.957031 23.460938 73.046875 23.402344 73.046875 23.289062 L 73.046875 23.027344 C 73.046875 22.914062 72.957031 22.792969 72.84375 22.75 L 70.59375 21.9375 C 70.484375 21.898438 70.394531 21.957031 70.394531 22.066406 L 70.394531 22.332031 " fill-opacity="1" fill-rule="nonzero"/><path fill="#dda62b" d="M 70.394531 24.304688 C 70.394531 24.417969 70.484375 24.539062 70.59375 24.582031 L 72.84375 25.390625 C 72.957031 25.433594 73.046875 25.375 73.046875 25.265625 L 73.046875 25 C 73.046875 24.890625 72.957031 24.765625 72.84375 24.726562 L 70.59375 23.914062 C 70.484375 23.871094 70.394531 23.929688 70.394531 24.042969 L 70.394531 24.304688 " fill-opacity="1" fill-rule="nonzero"/><path fill="#dda62b" d="M 67.21875 25.628906 C 67.21875 25.707031 67.28125 25.722656 67.355469 25.667969 L 68.894531 24.585938 C 68.972656 24.535156 69.035156 24.429688 69.035156 24.351562 L 69.035156 24.171875 C 69.035156 24.09375 68.972656 24.078125 68.894531 24.128906 L 67.355469 25.210938 C 67.28125 25.265625 67.21875 25.371094 67.21875 25.449219 L 67.21875 25.628906 " fill-opacity="1" fill-rule="nonzero"/><path fill="#dda62b" d="M 67.21875 27.433594 C 67.21875 27.511719 67.28125 27.527344 67.355469 27.472656 L 68.894531 26.390625 C 68.972656 26.335938 69.035156 26.234375 69.035156 26.15625 L 69.035156 25.976562 C 69.035156 25.898438 68.972656 25.878906 68.894531 25.933594 L 67.355469 27.015625 C 67.28125 27.070312 67.21875 27.175781 67.21875 27.253906 L 67.21875 27.433594 " fill-opacity="1" fill-rule="nonzero"/><path fill="#dda62b" d="M 70.394531 26.210938 C 70.394531 26.320312 70.484375 26.445312 70.59375 26.484375 L 72.84375 27.296875 C 72.957031 27.335938 73.046875 27.28125 73.046875 27.167969 L 73.046875 26.902344 C 73.046875 26.792969 72.957031 26.667969 72.84375 26.628906 L 70.59375 25.816406 C 70.484375 25.777344 70.394531 25.832031 70.394531 25.945312 L 70.394531 26.210938 " fill-opacity="1" fill-rule="nonzero"/><path fill="#dda62b" d="M 59.351562 28.769531 L 59.351562 13.515625 L 62.503906 11.019531 L 62.503906 28.78125 C 62.679688 28.785156 62.859375 28.789062 63.035156 28.796875 L 63.035156 10.875 L 67.570312 12.753906 L 67.570312 19.898438 L 66.511719 20.738281 C 66.449219 20.785156 66.414062 20.863281 66.414062 20.941406 L 66.414062 29.007812 L 66.941406 29.007812 L 66.941406 21.070312 L 69.386719 19.136719 L 69.386719 29.007812 L 69.917969 29.007812 L 69.917969 18.988281 L 73.480469 20.460938 L 73.480469 29.007812 L 74.011719 29.007812 L 74.011719 20.285156 C 74.011719 20.179688 73.945312 20.085938 73.847656 20.042969 L 69.769531 18.355469 C 69.746094 18.34375 69.71875 18.335938 69.691406 18.332031 L 69.664062 18.328125 L 69.652344 18.328125 C 69.589844 18.328125 69.53125 18.347656 69.484375 18.386719 L 68.101562 19.476562 L 68.101562 12.578125 C 68.101562 12.46875 68.039062 12.375 67.9375 12.332031 L 62.890625 10.242188 C 62.863281 10.230469 62.835938 10.222656 62.804688 10.21875 L 62.78125 10.214844 L 62.765625 10.214844 C 62.707031 10.214844 62.648438 10.230469 62.597656 10.269531 L 58.917969 13.183594 C 58.855469 13.234375 58.820312 13.308594 58.820312 13.390625 L 58.820312 28.769531 C 58.996094 28.769531 59.171875 28.769531 59.351562 28.769531 " fill-opacity="1" fill-rule="nonzero"/><path fill="#dda62b" d="M 63.6875 12.75 C 63.6875 12.890625 63.796875 13.042969 63.9375 13.09375 L 66.722656 14.097656 C 66.859375 14.148438 66.972656 14.078125 66.972656 13.9375 L 66.972656 13.613281 C 66.972656 13.472656 66.859375 13.320312 66.722656 13.273438 L 63.9375 12.265625 C 63.796875 12.214844 63.6875 12.285156 63.6875 12.421875 L 63.6875 12.75 " fill-opacity="1" fill-rule="nonzero"/><path fill="#dda62b" d="M 59.753906 14.390625 C 59.753906 14.484375 59.828125 14.507812 59.925781 14.441406 L 61.832031 13.101562 C 61.925781 13.035156 62.003906 12.902344 62.003906 12.808594 L 62.003906 12.585938 C 62.003906 12.492188 61.925781 12.46875 61.832031 12.535156 L 59.925781 13.875 C 59.828125 13.941406 59.753906 14.070312 59.753906 14.167969 L 59.753906 14.390625 " fill-opacity="1" fill-rule="nonzero"/><path fill="#dda62b" d="M 59.753906 16.699219 C 59.753906 16.796875 59.828125 16.816406 59.925781 16.75 L 61.832031 15.410156 C 61.925781 15.34375 62.003906 15.210938 62.003906 15.117188 L 62.003906 14.894531 C 62.003906 14.800781 61.925781 14.777344 61.832031 14.84375 L 59.925781 16.183594 C 59.828125 16.25 59.753906 16.382812 59.753906 16.476562 L 59.753906 16.699219 " fill-opacity="1" fill-rule="nonzero"/><path fill="#dda62b" d="M 59.753906 19.011719 C 59.753906 19.105469 59.828125 19.128906 59.925781 19.058594 L 61.832031 17.71875 C 61.925781 17.652344 62.003906 17.523438 62.003906 17.429688 L 62.003906 17.203125 C 62.003906 17.109375 61.925781 17.085938 61.832031 17.152344 L 59.925781 18.496094 C 59.828125 18.5625 59.753906 18.691406 59.753906 18.785156 L 59.753906 19.011719 " fill-opacity="1" fill-rule="nonzero"/><path fill="#dda62b" d="M 63.6875 15.109375 C 63.6875 15.25 63.796875 15.402344 63.9375 15.449219 L 66.722656 16.457031 C 66.859375 16.507812 66.972656 16.4375 66.972656 16.296875 L 66.972656 15.972656 C 66.972656 15.832031 66.859375 15.679688 66.722656 15.628906 L 63.9375 14.625 C 63.796875 14.574219 63.6875 14.644531 63.6875 14.78125 L 63.6875 15.109375 " fill-opacity="1" fill-rule="nonzero"/><path fill="#dda62b" d="M 63.6875 17.46875 C 63.6875 17.609375 63.796875 17.761719 63.9375 17.8125 L 66.722656 18.816406 C 66.859375 18.867188 66.972656 18.796875 66.972656 18.65625 L 66.972656 18.328125 C 66.972656 18.191406 66.859375 18.039062 66.722656 17.988281 L 63.9375 16.984375 C 63.796875 16.933594 63.6875 17.003906 63.6875 17.140625 L 63.6875 17.46875 " fill-opacity="1" fill-rule="nonzero"/><path fill="#dda62b" d="M 63.6875 24.410156 C 63.6875 24.550781 63.796875 24.703125 63.9375 24.75 L 66.722656 25.757812 C 66.859375 25.808594 66.972656 25.738281 66.972656 25.597656 L 66.972656 25.269531 C 66.972656 25.132812 66.859375 24.980469 66.722656 24.929688 L 63.9375 23.925781 C 63.796875 23.875 63.6875 23.945312 63.6875 24.082031 L 63.6875 24.410156 " fill-opacity="1" fill-rule="nonzero"/><path fill="#dda62b" d="M 59.753906 26.050781 C 59.753906 26.144531 59.828125 26.167969 59.925781 26.101562 L 61.832031 24.761719 C 61.925781 24.691406 62.003906 24.5625 62.003906 24.46875 L 62.003906 24.242188 C 62.003906 24.148438 61.925781 24.128906 61.832031 24.195312 L 59.925781 25.535156 C 59.828125 25.601562 59.753906 25.730469 59.753906 25.824219 L 59.753906 26.050781 " fill-opacity="1" fill-rule="nonzero"/><path fill="#dda62b" d="M 59.753906 28.359375 C 59.753906 28.453125 59.828125 28.476562 59.925781 28.410156 L 61.832031 27.070312 C 61.925781 27.003906 62.003906 26.871094 62.003906 26.777344 L 62.003906 26.554688 C 62.003906 26.460938 61.925781 26.4375 61.832031 26.503906 L 59.925781 27.84375 C 59.828125 27.910156 59.753906 28.042969 59.753906 28.136719 L 59.753906 28.359375 " fill-opacity="1" fill-rule="nonzero"/><path fill="#dda62b" d="M 63.6875 26.769531 C 63.6875 26.90625 63.796875 27.058594 63.9375 27.109375 L 66.722656 28.117188 C 66.859375 28.167969 66.972656 28.097656 66.972656 27.957031 L 66.972656 27.628906 C 66.972656 27.492188 66.859375 27.339844 66.722656 27.289062 L 63.9375 26.285156 C 63.796875 26.234375 63.6875 26.304688 63.6875 26.441406 L 63.6875 26.769531 " fill-opacity="1" fill-rule="nonzero"/><path fill="#dda62b" d="M 64.589844 28.878906 L 63.9375 28.640625 C 63.796875 28.59375 63.6875 28.664062 63.6875 28.800781 L 63.6875 28.824219 C 63.988281 28.839844 64.289062 28.855469 64.589844 28.878906 " fill-opacity="1" fill-rule="nonzero"/><path fill="#dda62b" d="M 63.6875 19.828125 C 63.6875 19.96875 63.796875 20.121094 63.9375 20.171875 L 66.722656 21.175781 L 66.972656 21.015625 L 66.972656 20.6875 C 66.972656 20.550781 66.859375 20.398438 66.722656 20.347656 L 63.9375 19.34375 C 63.796875 19.292969 63.6875 19.363281 63.6875 19.5 L 63.6875 19.828125 " fill-opacity="1" fill-rule="nonzero"/><path fill="#dda62b" d="M 59.753906 21.320312 C 59.753906 21.414062 59.828125 21.4375 59.925781 21.371094 L 61.832031 20.03125 C 61.925781 19.964844 62.003906 19.832031 62.003906 19.738281 L 62.003906 19.515625 C 62.003906 19.417969 61.925781 19.398438 61.832031 19.464844 L 59.925781 20.804688 C 59.828125 20.871094 59.753906 21 59.753906 21.097656 L 59.753906 21.320312 " fill-opacity="1" fill-rule="nonzero"/><path fill="#dda62b" d="M 61.832031 22.339844 L 59.925781 23.679688 L 59.90625 23.691406 L 59.769531 23.691406 C 59.757812 23.675781 59.753906 23.65625 59.753906 23.628906 L 59.753906 23.40625 C 59.753906 23.3125 59.828125 23.179688 59.925781 23.113281 L 61.832031 21.773438 C 61.925781 21.707031 62.003906 21.730469 62.003906 21.824219 L 62.003906 22.046875 C 62.003906 22.140625 61.925781 22.273438 61.832031 22.339844 " fill-opacity="1" fill-rule="nonzero"/><path fill="#dda62b" d="M 63.6875 22.1875 C 63.6875 22.328125 63.796875 22.480469 63.9375 22.527344 L 66.722656 23.535156 C 66.859375 23.585938 66.828125 23.511719 66.828125 23.375 L 66.828125 23.046875 C 66.828125 22.910156 66.859375 22.757812 66.722656 22.707031 L 63.9375 21.703125 C 63.796875 21.652344 63.6875 21.722656 63.6875 21.859375 L 63.6875 22.1875 " fill-opacity="1" fill-rule="nonzero"/><path fill="#dda62b" d="M 39.09375 30.183594 L 39.09375 18.082031 L 44.945312 14.039062 L 50.542969 16.359375 L 50.542969 28.8125 C 50.722656 28.808594 50.902344 28.800781 51.082031 28.796875 L 51.082031 16.179688 C 51.082031 16.070312 51.019531 15.972656 50.917969 15.933594 L 45.019531 13.488281 C 44.933594 13.453125 44.835938 13.464844 44.757812 13.515625 L 38.671875 17.722656 C 38.597656 17.773438 38.554688 17.855469 38.554688 17.941406 L 38.554688 30.332031 C 38.734375 30.28125 38.914062 30.230469 39.09375 30.183594 " fill-opacity="1" fill-rule="nonzero"/><path fill="#dda62b" d="M 39.980469 17.308594 C 40.128906 17.308594 40.25 17.1875 40.25 17.039062 L 40.25 16.167969 L 44.929688 12.933594 L 49.390625 14.78125 L 49.390625 15.6875 C 49.390625 15.832031 49.507812 15.953125 49.660156 15.953125 C 49.808594 15.953125 49.929688 15.832031 49.929688 15.6875 L 49.929688 14.601562 C 49.929688 14.496094 49.863281 14.398438 49.761719 14.355469 L 45 12.382812 C 44.914062 12.347656 44.816406 12.359375 44.742188 12.410156 L 39.824219 15.808594 C 39.753906 15.859375 39.710938 15.941406 39.710938 16.027344 L 39.710938 17.039062 C 39.710938 17.1875 39.828125 17.308594 39.980469 17.308594 " fill-opacity="1" fill-rule="nonzero"/><path fill="#dda62b" d="M 45.1875 29.132812 L 45.1875 13.738281 C 45.1875 13.589844 45.070312 13.46875 44.921875 13.46875 C 44.769531 13.46875 44.648438 13.589844 44.648438 13.738281 L 44.648438 29.191406 C 44.828125 29.171875 45.007812 29.152344 45.1875 29.132812 " fill-opacity="1" fill-rule="nonzero"/><path fill="#dda62b" d="M 47.5625 16.480469 C 47.5625 16.570312 47.636719 16.671875 47.722656 16.707031 L 48.160156 16.886719 C 48.25 16.925781 48.324219 16.882812 48.324219 16.792969 L 48.324219 16.359375 C 48.324219 16.269531 48.25 16.167969 48.160156 16.132812 L 47.722656 15.953125 C 47.636719 15.914062 47.5625 15.957031 47.5625 16.046875 L 47.5625 16.480469 " fill-opacity="1" fill-rule="nonzero"/><path fill="#dda62b" d="M 48.539062 16.882812 C 48.539062 16.972656 48.609375 17.074219 48.699219 17.109375 L 49.136719 17.292969 C 49.226562 17.328125 49.300781 17.285156 49.300781 17.195312 L 49.300781 16.761719 C 49.300781 16.675781 49.226562 16.574219 49.136719 16.535156 L 48.699219 16.355469 C 48.609375 16.316406 48.539062 16.359375 48.539062 16.449219 L 48.539062 16.882812 " fill-opacity="1" fill-rule="nonzero"/><path fill="#dda62b" d="M 49.515625 17.285156 C 49.515625 17.375 49.585938 17.476562 49.675781 17.511719 L 50.113281 17.695312 C 50.203125 17.730469 50.273438 17.6875 50.273438 17.601562 L 50.273438 17.167969 C 50.273438 17.078125 50.203125 16.976562 50.113281 16.9375 L 49.675781 16.757812 C 49.585938 16.722656 49.515625 16.761719 49.515625 16.851562 L 49.515625 17.285156 " fill-opacity="1" fill-rule="nonzero"/><path fill="#dda62b" d="M 46.585938 16.078125 C 46.585938 16.164062 46.660156 16.265625 46.75 16.304688 L 47.1875 16.484375 C 47.277344 16.519531 47.347656 16.480469 47.347656 16.390625 L 47.347656 15.957031 C 47.347656 15.867188 47.277344 15.765625 47.1875 15.730469 L 46.75 15.546875 C 46.660156 15.511719 46.585938 15.554688 46.585938 15.644531 L 46.585938 16.078125 " fill-opacity="1" fill-rule="nonzero"/><path fill="#dda62b" d="M 45.613281 15.671875 C 45.613281 15.761719 45.683594 15.863281 45.773438 15.902344 L 46.210938 16.082031 C 46.300781 16.117188 46.371094 16.078125 46.371094 15.988281 L 46.371094 15.554688 C 46.371094 15.464844 46.300781 15.363281 46.210938 15.328125 L 45.773438 15.144531 C 45.683594 15.109375 45.613281 15.148438 45.613281 15.238281 L 45.613281 15.671875 " fill-opacity="1" fill-rule="nonzero"/><path fill="#dda62b" d="M 41.402344 17.4375 C 41.402344 17.527344 41.472656 17.546875 41.5625 17.488281 L 42 17.1875 C 42.089844 17.125 42.164062 17.003906 42.164062 16.917969 L 42.164062 16.484375 C 42.164062 16.394531 42.089844 16.371094 42 16.433594 L 41.5625 16.730469 C 41.472656 16.792969 41.402344 16.914062 41.402344 17.003906 L 41.402344 17.4375 " fill-opacity="1" fill-rule="nonzero"/><path fill="#dda62b" d="M 42.375 16.769531 C 42.375 16.859375 42.449219 16.882812 42.539062 16.820312 L 42.976562 16.519531 C 43.066406 16.460938 43.136719 16.339844 43.136719 16.25 L 43.136719 15.816406 C 43.136719 15.726562 43.066406 15.703125 42.976562 15.765625 L 42.539062 16.066406 C 42.449219 16.125 42.375 16.246094 42.375 16.335938 L 42.375 16.769531 " fill-opacity="1" fill-rule="nonzero"/><path fill="#dda62b" d="M 43.351562 16.101562 C 43.351562 16.191406 43.425781 16.214844 43.515625 16.152344 L 43.949219 15.851562 C 44.039062 15.792969 44.113281 15.671875 44.113281 15.582031 L 44.113281 15.148438 C 44.113281 15.058594 44.039062 15.035156 43.949219 15.097656 L 43.515625 15.398438 C 43.425781 15.457031 43.351562 15.578125 43.351562 15.667969 L 43.351562 16.101562 " fill-opacity="1" fill-rule="nonzero"/><path fill="#dda62b" d="M 40.425781 18.105469 C 40.425781 18.191406 40.5 18.214844 40.589844 18.15625 L 41.023438 17.855469 C 41.113281 17.792969 41.1875 17.671875 41.1875 17.585938 L 41.1875 17.152344 C 41.1875 17.0625 41.113281 17.039062 41.023438 17.101562 L 40.589844 17.398438 C 40.5 17.460938 40.425781 17.582031 40.425781 17.671875 L 40.425781 18.105469 " fill-opacity="1" fill-rule="nonzero"/><path fill="#dda62b" d="M 39.449219 18.773438 C 39.449219 18.859375 39.523438 18.882812 39.613281 18.820312 L 40.050781 18.523438 C 40.140625 18.460938 40.210938 18.339844 40.210938 18.25 L 40.210938 17.816406 C 40.210938 17.730469 40.140625 17.707031 40.050781 17.765625 L 39.613281 18.066406 C 39.523438 18.128906 39.449219 18.25 39.449219 18.335938 L 39.449219 18.773438 " fill-opacity="1" fill-rule="nonzero"/><path fill="#dda62b" d="M 41.402344 18.933594 C 41.402344 19.019531 41.472656 19.042969 41.5625 18.980469 L 42 18.683594 C 42.089844 18.621094 42.164062 18.5 42.164062 18.410156 L 42.164062 17.976562 C 42.164062 17.890625 42.089844 17.867188 42 17.925781 L 41.5625 18.226562 C 41.472656 18.289062 41.402344 18.410156 41.402344 18.496094 L 41.402344 18.933594 " fill-opacity="1" fill-rule="nonzero"/><path fill="#dda62b" d="M 42.375 18.265625 C 42.375 18.351562 42.449219 18.375 42.539062 18.316406 L 42.976562 18.015625 C 43.066406 17.953125 43.136719 17.832031 43.136719 17.746094 L 43.136719 17.308594 C 43.136719 17.222656 43.066406 17.199219 42.976562 17.261719 L 42.539062 17.558594 C 42.449219 17.621094 42.375 17.742188 42.375 17.832031 L 42.375 18.265625 " fill-opacity="1" fill-rule="nonzero"/><path fill="#dda62b" d="M 43.351562 17.597656 C 43.351562 17.6875 43.425781 17.707031 43.515625 17.648438 L 43.949219 17.347656 C 44.039062 17.289062 44.113281 17.164062 44.113281 17.078125 L 44.113281 16.644531 C 44.113281 16.554688 44.039062 16.53125 43.949219 16.59375 L 43.515625 16.890625 C 43.425781 16.953125 43.351562 17.074219 43.351562 17.164062 L 43.351562 17.597656 " fill-opacity="1" fill-rule="nonzero"/><path fill="#dda62b" d="M 40.425781 19.597656 C 40.425781 19.6875 40.5 19.710938 40.589844 19.648438 L 41.023438 19.351562 C 41.113281 19.289062 41.1875 19.167969 41.1875 19.078125 L 41.1875 18.644531 C 41.1875 18.554688 41.113281 18.535156 41.023438 18.59375 L 40.589844 18.894531 C 40.5 18.957031 40.425781 19.078125 40.425781 19.164062 L 40.425781 19.597656 " fill-opacity="1" fill-rule="nonzero"/><path fill="#dda62b" d="M 39.449219 20.265625 C 39.449219 20.355469 39.523438 20.378906 39.613281 20.316406 L 40.050781 20.015625 C 40.140625 19.957031 40.210938 19.835938 40.210938 19.746094 L 40.210938 19.3125 C 40.210938 19.222656 40.140625 19.199219 40.050781 19.261719 L 39.613281 19.5625 C 39.523438 19.621094 39.449219 19.742188 39.449219 19.832031 L 39.449219 20.265625 " fill-opacity="1" fill-rule="nonzero"/><path fill="#dda62b" d="M 41.402344 20.425781 C 41.402344 20.515625 41.472656 20.539062 41.5625 20.476562 L 42 20.175781 C 42.089844 20.117188 42.164062 19.996094 42.164062 19.90625 L 42.164062 19.472656 C 42.164062 19.382812 42.089844 19.359375 42 19.421875 L 41.5625 19.722656 C 41.472656 19.78125 41.402344 19.902344 41.402344 19.992188 L 41.402344 20.425781 " fill-opacity="1" fill-rule="nonzero"/><path fill="#dda62b" d="M 42.375 19.757812 C 42.375 19.847656 42.449219 19.871094 42.539062 19.808594 L 42.976562 19.511719 C 43.066406 19.449219 43.136719 19.328125 43.136719 19.238281 L 43.136719 18.804688 C 43.136719 18.714844 43.066406 18.695312 42.976562 18.753906 L 42.539062 19.054688 C 42.449219 19.117188 42.375 19.238281 42.375 19.324219 L 42.375 19.757812 " fill-opacity="1" fill-rule="nonzero"/><path fill="#dda62b" d="M 43.351562 19.09375 C 43.351562 19.179688 43.425781 19.203125 43.515625 19.140625 L 43.949219 18.84375 C 44.039062 18.78125 44.113281 18.660156 44.113281 18.570312 L 44.113281 18.136719 C 44.113281 18.050781 44.039062 18.027344 43.949219 18.089844 L 43.515625 18.386719 C 43.425781 18.449219 43.351562 18.570312 43.351562 18.65625 L 43.351562 19.09375 " fill-opacity="1" fill-rule="nonzero"/><path fill="#dda62b" d="M 40.425781 21.09375 C 40.425781 21.183594 40.5 21.203125 40.589844 21.144531 L 41.023438 20.84375 C 41.113281 20.785156 41.1875 20.664062 41.1875 20.574219 L 41.1875 20.140625 C 41.1875 20.050781 41.113281 20.027344 41.023438 20.089844 L 40.589844 20.390625 C 40.5 20.449219 40.425781 20.570312 40.425781 20.660156 L 40.425781 21.09375 " fill-opacity="1" fill-rule="nonzero"/><path fill="#dda62b" d="M 39.449219 21.761719 C 39.449219 21.851562 39.523438 21.871094 39.613281 21.8125 L 40.050781 21.511719 C 40.140625 21.453125 40.210938 21.328125 40.210938 21.242188 L 40.210938 20.804688 C 40.210938 20.71875 40.140625 20.695312 40.050781 20.757812 L 39.613281 21.054688 C 39.523438 21.117188 39.449219 21.238281 39.449219 21.328125 L 39.449219 21.761719 " fill-opacity="1" fill-rule="nonzero"/><path fill="#dda62b" d="M 41.402344 21.921875 C 41.402344 22.011719 41.472656 22.03125 41.5625 21.972656 L 42 21.671875 C 42.089844 21.609375 42.164062 21.488281 42.164062 21.402344 L 42.164062 20.964844 C 42.164062 20.878906 42.089844 20.855469 42 20.917969 L 41.5625 21.214844 C 41.472656 21.277344 41.402344 21.398438 41.402344 21.488281 L 41.402344 21.921875 " fill-opacity="1" fill-rule="nonzero"/><path fill="#dda62b" d="M 42.375 21.253906 C 42.375 21.34375 42.449219 21.363281 42.539062 21.304688 L 42.976562 21.003906 C 43.066406 20.945312 43.136719 20.824219 43.136719 20.734375 L 43.136719 20.300781 C 43.136719 20.210938 43.066406 20.1875 42.976562 20.25 L 42.539062 20.550781 C 42.449219 20.609375 42.375 20.730469 42.375 20.820312 L 42.375 21.253906 " fill-opacity="1" fill-rule="nonzero"/><path fill="#dda62b" d="M 43.351562 20.585938 C 43.351562 20.675781 43.425781 20.699219 43.515625 20.636719 L 43.949219 20.339844 C 44.039062 20.277344 44.113281 20.15625 44.113281 20.066406 L 44.113281 19.632812 C 44.113281 19.542969 44.039062 19.523438 43.949219 19.582031 L 43.515625 19.882812 C 43.425781 19.941406 43.351562 20.0625 43.351562 20.152344 L 43.351562 20.585938 " fill-opacity="1" fill-rule="nonzero"/><path fill="#dda62b" d="M 40.425781 22.589844 C 40.425781 22.679688 40.5 22.699219 40.589844 22.640625 L 41.023438 22.339844 C 41.113281 22.277344 41.1875 22.15625 41.1875 22.070312 L 41.1875 21.632812 C 41.1875 21.546875 41.113281 21.523438 41.023438 21.585938 L 40.589844 21.882812 C 40.5 21.945312 40.425781 22.066406 40.425781 22.15625 L 40.425781 22.589844 " fill-opacity="1" fill-rule="nonzero"/><path fill="#dda62b" d="M 39.449219 23.257812 C 39.449219 23.34375 39.523438 23.367188 39.613281 23.304688 L 40.050781 23.007812 C 40.140625 22.945312 40.210938 22.824219 40.210938 22.734375 L 40.210938 22.300781 C 40.210938 22.214844 40.140625 22.191406 40.050781 22.253906 L 39.613281 22.550781 C 39.523438 22.613281 39.449219 22.734375 39.449219 22.820312 L 39.449219 23.257812 " fill-opacity="1" fill-rule="nonzero"/><path fill="#dda62b" d="M 41.402344 23.417969 C 41.402344 23.503906 41.472656 23.527344 41.5625 23.464844 L 42 23.167969 C 42.089844 23.105469 42.164062 22.984375 42.164062 22.894531 L 42.164062 22.460938 C 42.164062 22.375 42.089844 22.351562 42 22.410156 L 41.5625 22.710938 C 41.472656 22.773438 41.402344 22.894531 41.402344 22.984375 L 41.402344 23.417969 " fill-opacity="1" fill-rule="nonzero"/><path fill="#dda62b" d="M 42.375 22.75 C 42.375 22.835938 42.449219 22.859375 42.539062 22.800781 L 42.976562 22.5 C 43.066406 22.4375 43.136719 22.316406 43.136719 22.230469 L 43.136719 21.792969 C 43.136719 21.707031 43.066406 21.683594 42.976562 21.746094 L 42.539062 22.042969 C 42.449219 22.105469 42.375 22.226562 42.375 22.316406 L 42.375 22.75 " fill-opacity="1" fill-rule="nonzero"/><path fill="#dda62b" d="M 43.351562 22.082031 C 43.351562 22.171875 43.425781 22.191406 43.515625 22.132812 L 43.949219 21.832031 C 44.039062 21.773438 44.113281 21.648438 44.113281 21.5625 L 44.113281 21.128906 C 44.113281 21.039062 44.039062 21.015625 43.949219 21.078125 L 43.515625 21.375 C 43.425781 21.4375 43.351562 21.558594 43.351562 21.648438 L 43.351562 22.082031 " fill-opacity="1" fill-rule="nonzero"/><path fill="#dda62b" d="M 47.5625 17.953125 C 47.5625 18.042969 47.636719 18.144531 47.722656 18.179688 L 48.160156 18.363281 C 48.25 18.398438 48.324219 18.355469 48.324219 18.269531 L 48.324219 17.835938 C 48.324219 17.746094 48.25 17.644531 48.160156 17.605469 L 47.722656 17.425781 C 47.636719 17.390625 47.5625 17.429688 47.5625 17.519531 L 47.5625 17.953125 " fill-opacity="1" fill-rule="nonzero"/><path fill="#dda62b" d="M 48.539062 18.355469 C 48.539062 18.445312 48.609375 18.546875 48.699219 18.585938 L 49.136719 18.765625 C 49.226562 18.800781 49.300781 18.761719 49.300781 18.671875 L 49.300781 18.238281 C 49.300781 18.148438 49.226562 18.046875 49.136719 18.011719 L 48.699219 17.828125 C 48.609375 17.792969 48.539062 17.835938 48.539062 17.921875 L 48.539062 18.355469 " fill-opacity="1" fill-rule="nonzero"/><path fill="#dda62b" d="M 49.515625 18.761719 C 49.515625 18.847656 49.585938 18.949219 49.675781 18.988281 L 50.113281 19.167969 C 50.203125 19.207031 50.273438 19.164062 50.273438 19.074219 L 50.273438 18.640625 C 50.273438 18.550781 50.203125 18.449219 50.113281 18.414062 L 49.675781 18.230469 C 49.585938 18.195312 49.515625 18.238281 49.515625 18.324219 L 49.515625 18.761719 " fill-opacity="1" fill-rule="nonzero"/><path fill="#dda62b" d="M 46.585938 17.550781 C 46.585938 17.640625 46.660156 17.742188 46.75 17.777344 L 47.1875 17.960938 C 47.277344 17.996094 47.347656 17.953125 47.347656 17.863281 L 47.347656 17.429688 C 47.347656 17.34375 47.277344 17.242188 47.1875 17.203125 L 46.75 17.023438 C 46.660156 16.984375 46.585938 17.027344 46.585938 17.117188 L 46.585938 17.550781 " fill-opacity="1" fill-rule="nonzero"/><path fill="#dda62b" d="M 45.613281 17.148438 C 45.613281 17.234375 45.683594 17.335938 45.773438 17.375 L 46.210938 17.554688 C 46.300781 17.59375 46.371094 17.550781 46.371094 17.460938 L 46.371094 17.027344 C 46.371094 16.9375 46.300781 16.835938 46.210938 16.800781 L 45.773438 16.621094 C 45.683594 16.582031 45.613281 16.625 45.613281 16.714844 L 45.613281 17.148438 " fill-opacity="1" fill-rule="nonzero"/><path fill="#dda62b" d="M 47.5625 19.425781 C 47.5625 19.515625 47.636719 19.617188 47.722656 19.65625 L 48.160156 19.835938 C 48.25 19.875 48.324219 19.832031 48.324219 19.742188 L 48.324219 19.308594 C 48.324219 19.21875 48.25 19.117188 48.160156 19.082031 L 47.722656 18.898438 C 47.636719 18.863281 47.5625 18.90625 47.5625 18.992188 L 47.5625 19.425781 " fill-opacity="1" fill-rule="nonzero"/><path fill="#dda62b" d="M 48.539062 19.832031 C 48.539062 19.917969 48.609375 20.023438 48.699219 20.058594 L 49.136719 20.238281 C 49.226562 20.277344 49.300781 20.234375 49.300781 20.144531 L 49.300781 19.710938 C 49.300781 19.621094 49.226562 19.519531 49.136719 19.484375 L 48.699219 19.304688 C 48.609375 19.265625 48.539062 19.308594 48.539062 19.398438 L 48.539062 19.832031 " fill-opacity="1" fill-rule="nonzero"/><path fill="#dda62b" d="M 49.515625 20.234375 C 49.515625 20.324219 49.585938 20.425781 49.675781 20.460938 L 50.113281 20.640625 C 50.203125 20.679688 50.273438 20.636719 50.273438 20.546875 L 50.273438 20.113281 C 50.273438 20.027344 50.203125 19.925781 50.113281 19.886719 L 49.675781 19.707031 C 49.585938 19.667969 49.515625 19.710938 49.515625 19.800781 L 49.515625 20.234375 " fill-opacity="1" fill-rule="nonzero"/><path fill="#dda62b" d="M 46.585938 19.023438 C 46.585938 19.113281 46.660156 19.214844 46.75 19.25 L 47.1875 19.433594 C 47.277344 19.46875 47.347656 19.425781 47.347656 19.339844 L 47.347656 18.90625 C 47.347656 18.816406 47.277344 18.714844 47.1875 18.675781 L 46.75 18.496094 C 46.660156 18.460938 46.585938 18.5 46.585938 18.589844 L 46.585938 19.023438 " fill-opacity="1" fill-rule="nonzero"/><path fill="#dda62b" d="M 45.613281 18.621094 C 45.613281 18.710938 45.683594 18.8125 45.773438 18.847656 L 46.210938 19.03125 C 46.300781 19.066406 46.371094 19.023438 46.371094 18.933594 L 46.371094 18.5 C 46.371094 18.414062 46.300781 18.3125 46.210938 18.273438 L 45.773438 18.09375 C 45.683594 18.054688 45.613281 18.097656 45.613281 18.1875 L 45.613281 18.621094 " fill-opacity="1" fill-rule="nonzero"/><path fill="#dda62b" d="M 47.5625 20.902344 C 47.5625 20.992188 47.636719 21.09375 47.722656 21.128906 L 48.160156 21.308594 C 48.25 21.347656 48.324219 21.304688 48.324219 21.214844 L 48.324219 20.78125 C 48.324219 20.695312 48.25 20.589844 48.160156 20.554688 L 47.722656 20.375 C 47.636719 20.335938 47.5625 20.378906 47.5625 20.46875 L 47.5625 20.902344 " fill-opacity="1" fill-rule="nonzero"/><path fill="#dda62b" d="M 48.539062 21.304688 C 48.539062 21.394531 48.609375 21.496094 48.699219 21.53125 L 49.136719 21.714844 C 49.226562 21.75 49.300781 21.707031 49.300781 21.621094 L 49.300781 21.183594 C 49.300781 21.097656 49.226562 20.996094 49.136719 20.957031 L 48.699219 20.777344 C 48.609375 20.738281 48.539062 20.78125 48.539062 20.871094 L 48.539062 21.304688 " fill-opacity="1" fill-rule="nonzero"/><path fill="#dda62b" d="M 49.515625 21.707031 C 49.515625 21.796875 49.585938 21.898438 49.675781 21.9375 L 50.113281 22.117188 C 50.203125 22.152344 50.273438 22.113281 50.273438 22.023438 L 50.273438 21.589844 C 50.273438 21.5 50.203125 21.398438 50.113281 21.363281 L 49.675781 21.179688 C 49.585938 21.144531 49.515625 21.183594 49.515625 21.273438 L 49.515625 21.707031 " fill-opacity="1" fill-rule="nonzero"/><path fill="#dda62b" d="M 46.585938 20.5 C 46.585938 20.585938 46.660156 20.6875 46.75 20.726562 L 47.1875 20.90625 C 47.277344 20.945312 47.347656 20.902344 47.347656 20.8125 L 47.347656 20.378906 C 47.347656 20.289062 47.277344 20.1875 47.1875 20.152344 L 46.75 19.972656 C 46.660156 19.933594 46.585938 19.976562 46.585938 20.066406 L 46.585938 20.5 " fill-opacity="1" fill-rule="nonzero"/><path fill="#dda62b" d="M 45.613281 20.09375 C 45.613281 20.183594 45.683594 20.285156 45.773438 20.324219 L 46.210938 20.503906 C 46.300781 20.539062 46.371094 20.5 46.371094 20.410156 L 46.371094 19.976562 C 46.371094 19.886719 46.300781 19.785156 46.210938 19.75 L 45.773438 19.566406 C 45.683594 19.53125 45.613281 19.574219 45.613281 19.660156 L 45.613281 20.09375 " fill-opacity="1" fill-rule="nonzero"/><path fill="#dda62b" d="M 41.402344 24.902344 C 41.402344 24.992188 41.472656 25.015625 41.5625 24.953125 L 42 24.652344 C 42.089844 24.59375 42.164062 24.472656 42.164062 24.382812 L 42.164062 23.949219 C 42.164062 23.859375 42.089844 23.839844 42 23.898438 L 41.5625 24.199219 C 41.472656 24.257812 41.402344 24.382812 41.402344 24.46875 L 41.402344 24.902344 " fill-opacity="1" fill-rule="nonzero"/><path fill="#dda62b" d="M 42.375 24.234375 C 42.375 24.324219 42.449219 24.347656 42.539062 24.285156 L 42.976562 23.988281 C 43.066406 23.925781 43.136719 23.804688 43.136719 23.714844 L 43.136719 23.28125 C 43.136719 23.191406 43.066406 23.171875 42.976562 23.230469 L 42.539062 23.53125 C 42.449219 23.59375 42.375 23.714844 42.375 23.804688 L 42.375 24.234375 " fill-opacity="1" fill-rule="nonzero"/><path fill="#dda62b" d="M 43.351562 23.570312 C 43.351562 23.65625 43.425781 23.679688 43.515625 23.621094 L 43.949219 23.320312 C 44.039062 23.257812 44.113281 23.136719 44.113281 23.046875 L 44.113281 22.613281 C 44.113281 22.527344 44.039062 22.503906 43.949219 22.566406 L 43.515625 22.863281 C 43.425781 22.925781 43.351562 23.046875 43.351562 23.136719 L 43.351562 23.570312 " fill-opacity="1" fill-rule="nonzero"/><path fill="#dda62b" d="M 40.425781 25.570312 C 40.425781 25.660156 40.5 25.683594 40.589844 25.621094 L 41.023438 25.320312 C 41.113281 25.261719 41.1875 25.140625 41.1875 25.050781 L 41.1875 24.617188 C 41.1875 24.527344 41.113281 24.503906 41.023438 24.566406 L 40.589844 24.867188 C 40.5 24.925781 40.425781 25.046875 40.425781 25.136719 L 40.425781 25.570312 " fill-opacity="1" fill-rule="nonzero"/><path fill="#dda62b" d="M 39.449219 26.238281 C 39.449219 26.328125 39.523438 26.347656 39.613281 26.289062 L 40.050781 25.988281 C 40.140625 25.929688 40.210938 25.808594 40.210938 25.71875 L 40.210938 25.285156 C 40.210938 25.195312 40.140625 25.171875 40.050781 25.234375 L 39.613281 25.53125 C 39.523438 25.59375 39.449219 25.714844 39.449219 25.804688 L 39.449219 26.238281 " fill-opacity="1" fill-rule="nonzero"/><path fill="#dda62b" d="M 41.402344 26.398438 C 41.402344 26.488281 41.472656 26.511719 41.5625 26.449219 L 42 26.148438 C 42.089844 26.085938 42.164062 25.96875 42.164062 25.878906 L 42.164062 25.445312 C 42.164062 25.355469 42.089844 25.332031 42 25.394531 L 41.5625 25.691406 C 41.472656 25.753906 41.402344 25.875 41.402344 25.964844 L 41.402344 26.398438 " fill-opacity="1" fill-rule="nonzero"/><path fill="#dda62b" d="M 42.375 25.730469 C 42.375 25.820312 42.449219 25.84375 42.539062 25.78125 L 42.976562 25.480469 C 43.066406 25.421875 43.136719 25.300781 43.136719 25.210938 L 43.136719 24.777344 C 43.136719 24.6875 43.066406 24.664062 42.976562 24.726562 L 42.539062 25.027344 C 42.449219 25.085938 42.375 25.207031 42.375 25.296875 L 42.375 25.730469 " fill-opacity="1" fill-rule="nonzero"/><path fill="#dda62b" d="M 43.351562 25.0625 C 43.351562 25.152344 43.425781 25.175781 43.515625 25.113281 L 43.949219 24.816406 C 44.039062 24.753906 44.113281 24.632812 44.113281 24.542969 L 44.113281 24.109375 C 44.113281 24.019531 44.039062 24 43.949219 24.058594 L 43.515625 24.359375 C 43.425781 24.421875 43.351562 24.542969 43.351562 24.628906 L 43.351562 25.0625 " fill-opacity="1" fill-rule="nonzero"/><path fill="#dda62b" d="M 40.425781 27.066406 C 40.425781 27.15625 40.5 27.175781 40.589844 27.117188 L 41.023438 26.816406 C 41.113281 26.753906 41.1875 26.632812 41.1875 26.546875 L 41.1875 26.113281 C 41.1875 26.023438 41.113281 26 41.023438 26.0625 L 40.589844 26.359375 C 40.5 26.421875 40.425781 26.542969 40.425781 26.632812 L 40.425781 27.066406 " fill-opacity="1" fill-rule="nonzero"/><path fill="#dda62b" d="M 39.449219 27.734375 C 39.449219 27.820312 39.523438 27.84375 39.613281 27.785156 L 40.050781 27.484375 C 40.140625 27.421875 40.210938 27.300781 40.210938 27.214844 L 40.210938 26.777344 C 40.210938 26.691406 40.140625 26.667969 40.050781 26.730469 L 39.613281 27.027344 C 39.523438 27.089844 39.449219 27.210938 39.449219 27.296875 L 39.449219 27.734375 " fill-opacity="1" fill-rule="nonzero"/><path fill="#dda62b" d="M 47.5625 23.90625 C 47.5625 23.992188 47.636719 24.09375 47.722656 24.132812 L 48.160156 24.3125 C 48.25 24.351562 48.324219 24.308594 48.324219 24.21875 L 48.324219 23.785156 C 48.324219 23.695312 48.25 23.59375 48.160156 23.558594 L 47.722656 23.375 C 47.636719 23.339844 47.5625 23.382812 47.5625 23.46875 L 47.5625 23.90625 " fill-opacity="1" fill-rule="nonzero"/><path fill="#dda62b" d="M 48.539062 24.308594 C 48.539062 24.394531 48.609375 24.5 48.699219 24.535156 L 49.136719 24.714844 C 49.226562 24.753906 49.300781 24.710938 49.300781 24.621094 L 49.300781 24.1875 C 49.300781 24.097656 49.226562 23.996094 49.136719 23.960938 L 48.699219 23.78125 C 48.609375 23.742188 48.539062 23.785156 48.539062 23.875 L 48.539062 24.308594 " fill-opacity="1" fill-rule="nonzero"/><path fill="#dda62b" d="M 49.515625 24.710938 C 49.515625 24.800781 49.585938 24.902344 49.675781 24.9375 L 50.113281 25.121094 C 50.203125 25.15625 50.273438 25.113281 50.273438 25.027344 L 50.273438 24.589844 C 50.273438 24.503906 50.203125 24.402344 50.113281 24.363281 L 49.675781 24.183594 C 49.585938 24.144531 49.515625 24.1875 49.515625 24.277344 L 49.515625 24.710938 " fill-opacity="1" fill-rule="nonzero"/><path fill="#dda62b" d="M 46.585938 23.5 C 46.585938 23.589844 46.660156 23.691406 46.75 23.726562 L 47.1875 23.910156 C 47.277344 23.945312 47.347656 23.90625 47.347656 23.816406 L 47.347656 23.382812 C 47.347656 23.292969 47.277344 23.191406 47.1875 23.15625 L 46.75 22.972656 C 46.660156 22.9375 46.585938 22.976562 46.585938 23.066406 L 46.585938 23.5 " fill-opacity="1" fill-rule="nonzero"/><path fill="#dda62b" d="M 45.613281 23.097656 C 45.613281 23.1875 45.683594 23.289062 45.773438 23.324219 L 46.210938 23.507812 C 46.300781 23.542969 46.371094 23.5 46.371094 23.414062 L 46.371094 22.976562 C 46.371094 22.890625 46.300781 22.789062 46.210938 22.75 L 45.773438 22.570312 C 45.683594 22.535156 45.613281 22.574219 45.613281 22.664062 L 45.613281 23.097656 " fill-opacity="1" fill-rule="nonzero"/><path fill="#dda62b" d="M 47.5625 25.378906 C 47.5625 25.46875 47.636719 25.570312 47.722656 25.605469 L 48.160156 25.785156 C 48.25 25.824219 48.324219 25.78125 48.324219 25.691406 L 48.324219 25.257812 C 48.324219 25.171875 48.25 25.070312 48.160156 25.03125 L 47.722656 24.851562 C 47.636719 24.8125 47.5625 24.855469 47.5625 24.945312 L 47.5625 25.378906 " fill-opacity="1" fill-rule="nonzero"/><path fill="#dda62b" d="M 48.539062 25.78125 C 48.539062 25.871094 48.609375 25.972656 48.699219 26.007812 L 49.136719 26.191406 C 49.226562 26.226562 49.300781 26.183594 49.300781 26.097656 L 49.300781 25.660156 C 49.300781 25.574219 49.226562 25.472656 49.136719 25.433594 L 48.699219 25.253906 C 48.609375 25.21875 48.539062 25.257812 48.539062 25.347656 L 48.539062 25.78125 " fill-opacity="1" fill-rule="nonzero"/><path fill="#dda62b" d="M 49.515625 26.183594 C 49.515625 26.273438 49.585938 26.375 49.675781 26.414062 L 50.113281 26.59375 C 50.203125 26.628906 50.273438 26.589844 50.273438 26.5 L 50.273438 26.066406 C 50.273438 25.976562 50.203125 25.875 50.113281 25.839844 L 49.675781 25.65625 C 49.585938 25.621094 49.515625 25.660156 49.515625 25.75 L 49.515625 26.183594 " fill-opacity="1" fill-rule="nonzero"/><path fill="#dda62b" d="M 46.585938 24.976562 C 46.585938 25.0625 46.660156 25.167969 46.75 25.203125 L 47.1875 25.382812 C 47.277344 25.421875 47.347656 25.378906 47.347656 25.289062 L 47.347656 24.855469 C 47.347656 24.765625 47.277344 24.664062 47.1875 24.628906 L 46.75 24.449219 C 46.660156 24.410156 46.585938 24.453125 46.585938 24.542969 L 46.585938 24.976562 " fill-opacity="1" fill-rule="nonzero"/><path fill="#dda62b" d="M 45.613281 24.570312 C 45.613281 24.660156 45.683594 24.761719 45.773438 24.800781 L 46.210938 24.980469 C 46.300781 25.015625 46.371094 24.976562 46.371094 24.886719 L 46.371094 24.453125 C 46.371094 24.363281 46.300781 24.261719 46.210938 24.226562 L 45.773438 24.042969 C 45.683594 24.007812 45.613281 24.050781 45.613281 24.136719 L 45.613281 24.570312 " fill-opacity="1" fill-rule="nonzero"/><path fill="#dda62b" d="M 47.5625 22.375 C 47.5625 22.464844 47.636719 22.566406 47.722656 22.601562 L 48.160156 22.785156 C 48.25 22.820312 48.324219 22.777344 48.324219 22.691406 L 48.324219 22.257812 C 48.324219 22.167969 48.25 22.066406 48.160156 22.027344 L 47.722656 21.847656 C 47.636719 21.8125 47.5625 21.851562 47.5625 21.941406 L 47.5625 22.375 " fill-opacity="1" fill-rule="nonzero"/><path fill="#dda62b" d="M 48.539062 22.777344 C 48.539062 22.867188 48.609375 22.96875 48.699219 23.007812 L 49.136719 23.1875 C 49.226562 23.222656 49.300781 23.183594 49.300781 23.09375 L 49.300781 22.660156 C 49.300781 22.570312 49.226562 22.46875 49.136719 22.433594 L 48.699219 22.25 C 48.609375 22.214844 48.539062 22.257812 48.539062 22.34375 L 48.539062 22.777344 " fill-opacity="1" fill-rule="nonzero"/><path fill="#dda62b" d="M 49.515625 23.183594 C 49.515625 23.269531 49.585938 23.375 49.675781 23.410156 L 50.113281 23.589844 C 50.203125 23.628906 50.273438 23.585938 50.273438 23.496094 L 50.273438 23.0625 C 50.273438 22.972656 50.203125 22.871094 50.113281 22.835938 L 49.675781 22.65625 C 49.585938 22.617188 49.515625 22.660156 49.515625 22.75 L 49.515625 23.183594 " fill-opacity="1" fill-rule="nonzero"/><path fill="#dda62b" d="M 46.585938 21.972656 C 46.585938 22.0625 46.660156 22.164062 46.75 22.199219 L 47.1875 22.378906 C 47.277344 22.417969 47.347656 22.375 47.347656 22.289062 L 47.347656 21.851562 C 47.347656 21.765625 47.277344 21.664062 47.1875 21.625 L 46.75 21.445312 C 46.660156 21.40625 46.585938 21.449219 46.585938 21.539062 L 46.585938 21.972656 " fill-opacity="1" fill-rule="nonzero"/><path fill="#dda62b" d="M 45.613281 21.570312 C 45.613281 21.660156 45.683594 21.757812 45.773438 21.796875 L 46.210938 21.976562 C 46.300781 22.015625 46.371094 21.972656 46.371094 21.882812 L 46.371094 21.449219 C 46.371094 21.363281 46.300781 21.257812 46.210938 21.222656 L 45.773438 21.042969 C 45.683594 21.003906 45.613281 21.046875 45.613281 21.136719 L 45.613281 21.570312 " fill-opacity="1" fill-rule="nonzero"/><path fill="#dda62b" d="M 40.425781 24.066406 C 40.425781 24.15625 40.5 24.179688 40.589844 24.117188 L 41.023438 23.816406 C 41.113281 23.757812 41.1875 23.636719 41.1875 23.546875 L 41.1875 23.113281 C 41.1875 23.023438 41.113281 23 41.023438 23.0625 L 40.589844 23.363281 C 40.5 23.421875 40.425781 23.542969 40.425781 23.632812 L 40.425781 24.066406 " fill-opacity="1" fill-rule="nonzero"/><path fill="#dda62b" d="M 39.449219 24.734375 C 39.449219 24.824219 39.523438 24.84375 39.613281 24.785156 L 40.050781 24.484375 C 40.140625 24.421875 40.210938 24.300781 40.210938 24.214844 L 40.210938 23.78125 C 40.210938 23.691406 40.140625 23.667969 40.050781 23.730469 L 39.613281 24.027344 C 39.523438 24.089844 39.449219 24.210938 39.449219 24.300781 L 39.449219 24.734375 " fill-opacity="1" fill-rule="nonzero"/><path fill="#dda62b" d="M 41.402344 27.953125 C 41.402344 28.042969 41.472656 28.066406 41.5625 28.003906 L 42 27.707031 C 42.089844 27.644531 42.164062 27.523438 42.164062 27.433594 L 42.164062 27 C 42.164062 26.910156 42.089844 26.890625 42 26.949219 L 41.5625 27.25 C 41.472656 27.308594 41.402344 27.433594 41.402344 27.519531 L 41.402344 27.953125 " fill-opacity="1" fill-rule="nonzero"/><path fill="#dda62b" d="M 42.375 27.289062 C 42.375 27.375 42.449219 27.398438 42.539062 27.335938 L 42.976562 27.039062 C 43.066406 26.976562 43.136719 26.855469 43.136719 26.765625 L 43.136719 26.332031 C 43.136719 26.246094 43.066406 26.222656 42.976562 26.28125 L 42.539062 26.582031 C 42.449219 26.644531 42.375 26.765625 42.375 26.851562 L 42.375 27.289062 " fill-opacity="1" fill-rule="nonzero"/><path fill="#dda62b" d="M 43.351562 26.621094 C 43.351562 26.707031 43.425781 26.730469 43.515625 26.671875 L 43.949219 26.371094 C 44.039062 26.308594 44.113281 26.1875 44.113281 26.101562 L 44.113281 25.664062 C 44.113281 25.578125 44.039062 25.554688 43.949219 25.617188 L 43.515625 25.914062 C 43.425781 25.976562 43.351562 26.097656 43.351562 26.1875 L 43.351562 26.621094 " fill-opacity="1" fill-rule="nonzero"/><path fill="#dda62b" d="M 40.425781 28.621094 C 40.425781 28.710938 40.5 28.734375 40.589844 28.671875 L 41.023438 28.371094 C 41.113281 28.3125 41.1875 28.191406 41.1875 28.101562 L 41.1875 27.667969 C 41.1875 27.578125 41.113281 27.554688 41.023438 27.617188 L 40.589844 27.917969 C 40.5 27.976562 40.425781 28.097656 40.425781 28.1875 L 40.425781 28.621094 " fill-opacity="1" fill-rule="nonzero"/><path fill="#dda62b" d="M 39.449219 29.289062 C 39.449219 29.378906 39.523438 29.398438 39.613281 29.339844 L 40.050781 29.039062 C 40.140625 28.980469 40.210938 28.859375 40.210938 28.769531 L 40.210938 28.335938 C 40.210938 28.246094 40.140625 28.222656 40.050781 28.285156 L 39.613281 28.585938 C 39.523438 28.644531 39.449219 28.765625 39.449219 28.855469 L 39.449219 29.289062 " fill-opacity="1" fill-rule="nonzero"/><path fill="#dda62b" d="M 41.402344 29.449219 C 41.402344 29.539062 41.472656 29.558594 41.5625 29.5 L 42 29.199219 C 42.089844 29.140625 42.164062 29.015625 42.164062 28.929688 L 42.164062 28.496094 C 42.164062 28.40625 42.089844 28.382812 42 28.445312 L 41.5625 28.742188 C 41.472656 28.804688 41.402344 28.925781 41.402344 29.015625 L 41.402344 29.449219 " fill-opacity="1" fill-rule="nonzero"/><path fill="#dda62b" d="M 42.375 28.78125 C 42.375 28.871094 42.449219 28.894531 42.539062 28.832031 L 42.976562 28.53125 C 43.066406 28.472656 43.136719 28.351562 43.136719 28.261719 L 43.136719 27.828125 C 43.136719 27.738281 43.066406 27.714844 42.976562 27.777344 L 42.539062 28.078125 C 42.449219 28.136719 42.375 28.257812 42.375 28.347656 L 42.375 28.78125 " fill-opacity="1" fill-rule="nonzero"/><path fill="#dda62b" d="M 43.351562 28.113281 C 43.351562 28.203125 43.425781 28.226562 43.515625 28.164062 L 43.949219 27.867188 C 44.039062 27.804688 44.113281 27.683594 44.113281 27.59375 L 44.113281 27.160156 C 44.113281 27.070312 44.039062 27.050781 43.949219 27.109375 L 43.515625 27.410156 C 43.425781 27.472656 43.351562 27.59375 43.351562 27.679688 L 43.351562 28.113281 " fill-opacity="1" fill-rule="nonzero"/><path fill="#dda62b" d="M 41.152344 29.714844 C 41.171875 29.675781 41.1875 29.632812 41.1875 29.597656 L 41.1875 29.164062 C 41.1875 29.074219 41.113281 29.050781 41.023438 29.113281 L 40.589844 29.410156 C 40.5 29.472656 40.425781 29.59375 40.425781 29.683594 L 40.425781 29.863281 C 40.667969 29.8125 40.910156 29.761719 41.152344 29.714844 " fill-opacity="1" fill-rule="nonzero"/><path fill="#dda62b" d="M 40.210938 29.910156 L 40.210938 29.828125 C 40.210938 29.742188 40.140625 29.71875 40.050781 29.78125 L 39.671875 30.039062 C 39.851562 29.992188 40.03125 29.953125 40.210938 29.910156 " fill-opacity="1" fill-rule="nonzero"/><path fill="#dda62b" d="M 44.046875 29.261719 C 44.085938 29.207031 44.113281 29.140625 44.113281 29.089844 L 44.113281 28.65625 C 44.113281 28.566406 44.039062 28.542969 43.949219 28.605469 L 43.515625 28.902344 C 43.425781 28.964844 43.351562 29.085938 43.351562 29.175781 L 43.351562 29.351562 C 43.582031 29.320312 43.816406 29.289062 44.046875 29.261719 " fill-opacity="1" fill-rule="nonzero"/><path fill="#dda62b" d="M 47.5625 26.957031 C 47.5625 27.042969 47.636719 27.144531 47.722656 27.183594 L 48.160156 27.363281 C 48.25 27.402344 48.324219 27.359375 48.324219 27.269531 L 48.324219 26.835938 C 48.324219 26.746094 48.25 26.644531 48.160156 26.609375 L 47.722656 26.425781 C 47.636719 26.390625 47.5625 26.433594 47.5625 26.523438 L 47.5625 26.957031 " fill-opacity="1" fill-rule="nonzero"/><path fill="#dda62b" d="M 48.539062 27.359375 C 48.539062 27.449219 48.609375 27.550781 48.699219 27.585938 L 49.136719 27.765625 C 49.226562 27.804688 49.300781 27.761719 49.300781 27.671875 L 49.300781 27.238281 C 49.300781 27.152344 49.226562 27.046875 49.136719 27.011719 L 48.699219 26.832031 C 48.609375 26.792969 48.539062 26.835938 48.539062 26.925781 L 48.539062 27.359375 " fill-opacity="1" fill-rule="nonzero"/><path fill="#dda62b" d="M 49.515625 27.761719 C 49.515625 27.851562 49.585938 27.953125 49.675781 27.988281 L 50.113281 28.171875 C 50.203125 28.207031 50.273438 28.164062 50.273438 28.078125 L 50.273438 27.644531 C 50.273438 27.554688 50.203125 27.453125 50.113281 27.414062 L 49.675781 27.234375 C 49.585938 27.199219 49.515625 27.238281 49.515625 27.328125 L 49.515625 27.761719 " fill-opacity="1" fill-rule="nonzero"/><path fill="#dda62b" d="M 46.585938 26.550781 C 46.585938 26.640625 46.660156 26.742188 46.75 26.78125 L 47.1875 26.960938 C 47.277344 26.996094 47.347656 26.957031 47.347656 26.867188 L 47.347656 26.433594 C 47.347656 26.34375 47.277344 26.242188 47.1875 26.203125 L 46.75 26.023438 C 46.660156 25.988281 46.585938 26.03125 46.585938 26.117188 L 46.585938 26.550781 " fill-opacity="1" fill-rule="nonzero"/><path fill="#dda62b" d="M 45.613281 26.148438 C 45.613281 26.238281 45.683594 26.339844 45.773438 26.375 L 46.210938 26.558594 C 46.300781 26.59375 46.371094 26.550781 46.371094 26.464844 L 46.371094 26.03125 C 46.371094 25.941406 46.300781 25.839844 46.210938 25.800781 L 45.773438 25.621094 C 45.683594 25.585938 45.613281 25.625 45.613281 25.714844 L 45.613281 26.148438 " fill-opacity="1" fill-rule="nonzero"/><path fill="#dda62b" d="M 47.5625 28.429688 C 47.5625 28.519531 47.636719 28.621094 47.722656 28.65625 L 48.160156 28.835938 C 48.25 28.875 48.324219 28.832031 48.324219 28.742188 L 48.324219 28.308594 C 48.324219 28.222656 48.25 28.121094 48.160156 28.082031 L 47.722656 27.902344 C 47.636719 27.863281 47.5625 27.90625 47.5625 27.996094 L 47.5625 28.429688 " fill-opacity="1" fill-rule="nonzero"/><path fill="#dda62b" d="M 49.300781 28.859375 L 49.300781 28.714844 C 49.300781 28.625 49.226562 28.523438 49.136719 28.484375 L 48.699219 28.304688 C 48.609375 28.269531 48.539062 28.308594 48.539062 28.398438 L 48.539062 28.832031 C 48.539062 28.851562 48.542969 28.871094 48.550781 28.890625 C 48.800781 28.878906 49.046875 28.867188 49.300781 28.859375 " fill-opacity="1" fill-rule="nonzero"/><path fill="#dda62b" d="M 49.964844 28.828125 L 49.675781 28.707031 C 49.585938 28.671875 49.515625 28.714844 49.515625 28.800781 L 49.515625 28.847656 C 49.664062 28.84375 49.816406 28.835938 49.964844 28.828125 " fill-opacity="1" fill-rule="nonzero"/><path fill="#dda62b" d="M 46.585938 28.027344 C 46.585938 28.113281 46.660156 28.21875 46.75 28.253906 L 47.1875 28.433594 C 47.277344 28.472656 47.347656 28.429688 47.347656 28.339844 L 47.347656 27.90625 C 47.347656 27.816406 47.277344 27.714844 47.1875 27.679688 L 46.75 27.5 C 46.660156 27.460938 46.585938 27.503906 46.585938 27.59375 L 46.585938 28.027344 " fill-opacity="1" fill-rule="nonzero"/><path fill="#dda62b" d="M 45.613281 27.625 C 45.613281 27.710938 45.683594 27.8125 45.773438 27.851562 L 46.210938 28.03125 C 46.300781 28.070312 46.371094 28.027344 46.371094 27.9375 L 46.371094 27.503906 C 46.371094 27.414062 46.300781 27.3125 46.210938 27.277344 L 45.773438 27.09375 C 45.683594 27.058594 45.613281 27.101562 45.613281 27.1875 L 45.613281 27.625 " fill-opacity="1" fill-rule="nonzero"/><path fill="#dda62b" d="M 46.371094 29.03125 L 46.371094 28.976562 C 46.371094 28.890625 46.300781 28.789062 46.210938 28.75 L 45.773438 28.570312 C 45.683594 28.53125 45.613281 28.574219 45.613281 28.664062 L 45.613281 29.09375 C 45.867188 29.070312 46.117188 29.050781 46.371094 29.03125 " fill-opacity="1" fill-rule="nonzero"/><path fill="#dda62b" d="M 51.890625 11.664062 C 52.023438 11.664062 52.132812 11.554688 52.132812 11.421875 L 52.132812 6.71875 L 54.335938 4.972656 L 57.375 6.230469 L 57.375 10.941406 C 57.375 11.074219 57.480469 11.183594 57.617188 11.183594 C 57.75 11.183594 57.859375 11.074219 57.859375 10.941406 L 57.859375 6.070312 C 57.859375 5.972656 57.800781 5.886719 57.710938 5.847656 L 54.390625 4.476562 C 54.308594 4.441406 54.214844 4.453125 54.144531 4.507812 L 51.738281 6.414062 C 51.679688 6.460938 51.648438 6.53125 51.648438 6.605469 L 51.648438 11.421875 C 51.648438 11.554688 51.753906 11.664062 51.890625 11.664062 " fill-opacity="1" fill-rule="nonzero"/><path fill="#dda62b" d="M 54.960938 8.96875 C 54.960938 9.101562 55.066406 9.246094 55.199219 9.292969 L 56.730469 9.917969 C 56.859375 9.964844 56.96875 9.898438 56.96875 9.765625 L 56.96875 6.90625 C 56.96875 6.773438 56.859375 6.628906 56.730469 6.582031 L 55.199219 5.957031 C 55.066406 5.910156 54.960938 5.976562 54.960938 6.105469 L 54.960938 8.96875 " fill-opacity="1" fill-rule="nonzero"/><path fill="#dda62b" d="M 51.058594 28.800781 L 51.058594 12.617188 L 54.339844 10.023438 L 58.859375 11.894531 L 58.859375 28.769531 C 59.023438 28.769531 59.183594 28.769531 59.34375 28.769531 L 59.34375 11.734375 C 59.34375 11.636719 59.285156 11.546875 59.195312 11.511719 L 54.394531 9.523438 C 54.3125 9.488281 54.21875 9.503906 54.152344 9.558594 L 50.667969 12.316406 C 50.609375 12.359375 50.578125 12.429688 50.578125 12.503906 L 50.578125 28.8125 C 50.738281 28.808594 50.898438 28.804688 51.058594 28.800781 " fill-opacity="1" fill-rule="nonzero"/><path fill="#dda62b" d="M 54.550781 28.757812 L 54.550781 9.746094 C 54.550781 9.613281 54.441406 9.503906 54.308594 9.503906 C 54.171875 9.503906 54.066406 9.613281 54.066406 9.746094 L 54.066406 28.757812 C 54.226562 28.757812 54.386719 28.757812 54.550781 28.757812 " fill-opacity="1" fill-rule="nonzero"/><path fill="#dda62b" d="M 55.410156 11.4375 L 56.113281 11.691406 L 56.113281 12.472656 L 55.410156 12.222656 C 55.28125 12.171875 55.171875 12.027344 55.171875 11.898438 L 55.171875 11.589844 C 55.171875 11.457031 55.28125 11.390625 55.410156 11.4375 " fill-opacity="1" fill-rule="nonzero"/><path fill="#dda62b" d="M 57.230469 12.878906 L 56.320312 12.550781 L 56.320312 11.765625 L 57.230469 12.09375 L 57.230469 12.878906 " fill-opacity="1" fill-rule="nonzero"/><path fill="#dda62b" d="M 57.4375 12.171875 L 58.046875 12.390625 C 58.179688 12.4375 58.285156 12.582031 58.285156 12.710938 L 58.285156 13.023438 C 58.285156 13.152344 58.179688 13.21875 58.046875 13.171875 L 57.4375 12.953125 L 57.4375 12.171875 " fill-opacity="1" fill-rule="nonzero"/><path fill="#dda62b" d="M 55.410156 13.671875 L 56.113281 13.925781 L 56.113281 14.707031 L 55.410156 14.453125 C 55.28125 14.40625 55.171875 14.261719 55.171875 14.132812 L 55.171875 13.820312 C 55.171875 13.691406 55.28125 13.625 55.410156 13.671875 " fill-opacity="1" fill-rule="nonzero"/><path fill="#dda62b" d="M 57.230469 15.113281 L 56.320312 14.78125 L 56.320312 14 L 57.230469 14.328125 L 57.230469 15.113281 " fill-opacity="1" fill-rule="nonzero"/><path fill="#dda62b" d="M 57.4375 14.402344 L 58.046875 14.625 C 58.179688 14.671875 58.285156 14.816406 58.285156 14.945312 L 58.285156 15.253906 C 58.285156 15.386719 58.179688 15.453125 58.046875 15.40625 L 57.4375 15.1875 L 57.4375 14.402344 " fill-opacity="1" fill-rule="nonzero"/><path fill="#dda62b" d="M 57.4375 16.636719 L 58.046875 16.855469 C 58.179688 16.902344 58.285156 17.046875 58.285156 17.179688 L 58.285156 17.488281 C 58.285156 17.621094 58.179688 17.6875 58.046875 17.640625 L 57.4375 17.417969 L 57.4375 16.636719 " fill-opacity="1" fill-rule="nonzero"/><path fill="#dda62b" d="M 57.230469 17.34375 L 56.320312 17.015625 L 56.320312 16.230469 L 57.230469 16.5625 L 57.230469 17.34375 " fill-opacity="1" fill-rule="nonzero"/><path fill="#dda62b" d="M 55.410156 15.902344 L 56.113281 16.15625 L 56.113281 16.941406 L 55.410156 16.6875 C 55.28125 16.640625 55.171875 16.496094 55.171875 16.363281 L 55.171875 16.054688 C 55.171875 15.921875 55.28125 15.855469 55.410156 15.902344 " fill-opacity="1" fill-rule="nonzero"/><path fill="#dda62b" d="M 57.230469 19.578125 L 56.320312 19.246094 L 56.320312 18.464844 L 57.230469 18.792969 L 57.230469 19.578125 " fill-opacity="1" fill-rule="nonzero"/><path fill="#dda62b" d="M 55.410156 18.136719 L 56.113281 18.390625 L 56.113281 19.171875 L 55.410156 18.921875 C 55.28125 18.871094 55.171875 18.726562 55.171875 18.597656 L 55.171875 18.289062 C 55.171875 18.15625 55.28125 18.089844 55.410156 18.136719 " fill-opacity="1" fill-rule="nonzero"/><path fill="#dda62b" d="M 57.4375 18.871094 L 58.046875 19.089844 C 58.179688 19.136719 58.285156 19.28125 58.285156 19.410156 L 58.285156 19.722656 C 58.285156 19.851562 58.179688 19.917969 58.046875 19.871094 L 57.4375 19.652344 L 57.4375 18.871094 " fill-opacity="1" fill-rule="nonzero"/><path fill="#dda62b" d="M 57.4375 21.101562 L 58.046875 21.320312 C 58.179688 21.371094 58.285156 21.515625 58.285156 21.644531 L 58.285156 21.953125 C 58.285156 22.085938 58.179688 22.152344 58.046875 22.105469 L 57.4375 21.886719 L 57.4375 21.101562 " fill-opacity="1" fill-rule="nonzero"/><path fill="#dda62b" d="M 57.230469 21.808594 L 56.320312 21.480469 L 56.320312 20.699219 L 57.230469 21.027344 L 57.230469 21.808594 " fill-opacity="1" fill-rule="nonzero"/><path fill="#dda62b" d="M 55.410156 20.371094 L 56.113281 20.625 L 56.113281 21.40625 L 55.410156 21.152344 C 55.28125 21.105469 55.171875 20.960938 55.171875 20.832031 L 55.171875 20.519531 C 55.171875 20.390625 55.28125 20.324219 55.410156 20.371094 " fill-opacity="1" fill-rule="nonzero"/><path fill="#dda62b" d="M 52.703125 12.730469 L 52.199219 13.085938 L 52.199219 12.550781 L 52.703125 12.195312 L 52.703125 12.730469 " fill-opacity="1" fill-rule="nonzero"/><path fill="#dda62b" d="M 52.910156 12.050781 L 53.417969 11.691406 C 53.507812 11.628906 53.582031 11.652344 53.582031 11.742188 L 53.582031 11.953125 C 53.582031 12.042969 53.507812 12.164062 53.417969 12.230469 L 52.910156 12.585938 L 52.910156 12.050781 " fill-opacity="1" fill-rule="nonzero"/><path fill="#dda62b" d="M 51.613281 12.960938 L 51.992188 12.695312 L 51.992188 13.230469 L 51.613281 13.496094 C 51.523438 13.5625 51.449219 13.539062 51.449219 13.449219 L 51.449219 13.238281 C 51.449219 13.148438 51.523438 13.023438 51.613281 12.960938 " fill-opacity="1" fill-rule="nonzero"/><path fill="#dda62b" d="M 52.703125 14.917969 L 52.199219 15.269531 L 52.199219 14.734375 L 52.703125 14.382812 L 52.703125 14.917969 " fill-opacity="1" fill-rule="nonzero"/><path fill="#dda62b" d="M 51.613281 15.148438 L 51.992188 14.882812 L 51.992188 15.417969 L 51.613281 15.683594 C 51.523438 15.746094 51.449219 15.726562 51.449219 15.636719 L 51.449219 15.425781 C 51.449219 15.335938 51.523438 15.210938 51.613281 15.148438 " fill-opacity="1" fill-rule="nonzero"/><path fill="#dda62b" d="M 52.910156 14.234375 L 53.417969 13.878906 C 53.507812 13.816406 53.582031 13.835938 53.582031 13.925781 L 53.582031 14.140625 C 53.582031 14.226562 53.507812 14.351562 53.417969 14.414062 L 52.910156 14.773438 L 52.910156 14.234375 " fill-opacity="1" fill-rule="nonzero"/><path fill="#dda62b" d="M 52.703125 17.105469 L 52.199219 17.457031 L 52.199219 16.921875 L 52.703125 16.570312 L 52.703125 17.105469 " fill-opacity="1" fill-rule="nonzero"/><path fill="#dda62b" d="M 51.613281 17.335938 L 51.992188 17.066406 L 51.992188 17.605469 L 51.613281 17.871094 C 51.523438 17.933594 51.449219 17.910156 51.449219 17.824219 L 51.449219 17.609375 C 51.449219 17.519531 51.523438 17.398438 51.613281 17.335938 " fill-opacity="1" fill-rule="nonzero"/><path fill="#dda62b" d="M 52.910156 16.421875 L 53.417969 16.066406 C 53.507812 16.003906 53.582031 16.023438 53.582031 16.113281 L 53.582031 16.324219 C 53.582031 16.414062 53.507812 16.539062 53.417969 16.601562 L 52.910156 16.957031 L 52.910156 16.421875 " fill-opacity="1" fill-rule="nonzero"/><path fill="#dda62b" d="M 52.910156 18.609375 L 53.417969 18.253906 C 53.507812 18.1875 53.582031 18.210938 53.582031 18.296875 L 53.582031 18.511719 C 53.582031 18.601562 53.507812 18.722656 53.417969 18.789062 L 52.910156 19.144531 L 52.910156 18.609375 " fill-opacity="1" fill-rule="nonzero"/><path fill="#dda62b" d="M 52.703125 19.289062 L 52.199219 19.644531 L 52.199219 19.109375 L 52.703125 18.753906 L 52.703125 19.289062 " fill-opacity="1" fill-rule="nonzero"/><path fill="#dda62b" d="M 51.613281 19.519531 L 51.992188 19.253906 L 51.992188 19.789062 L 51.613281 20.054688 C 51.523438 20.121094 51.449219 20.097656 51.449219 20.007812 L 51.449219 19.796875 C 51.449219 19.707031 51.523438 19.582031 51.613281 19.519531 " fill-opacity="1" fill-rule="nonzero"/><path fill="#dda62b" d="M 52.910156 20.792969 L 53.417969 20.4375 C 53.507812 20.375 53.582031 20.394531 53.582031 20.484375 L 53.582031 20.699219 C 53.582031 20.785156 53.507812 20.910156 53.417969 20.972656 L 52.910156 21.332031 L 52.910156 20.792969 " fill-opacity="1" fill-rule="nonzero"/><path fill="#dda62b" d="M 52.703125 21.476562 L 52.199219 21.828125 L 52.199219 21.292969 L 52.703125 20.941406 L 52.703125 21.476562 " fill-opacity="1" fill-rule="nonzero"/><path fill="#dda62b" d="M 51.613281 21.707031 L 51.992188 21.441406 L 51.992188 21.976562 L 51.613281 22.242188 C 51.523438 22.304688 51.449219 22.285156 51.449219 22.195312 L 51.449219 21.984375 C 51.449219 21.894531 51.523438 21.769531 51.613281 21.707031 " fill-opacity="1" fill-rule="nonzero"/><path fill="#dda62b" d="M 55.410156 22.554688 L 56.113281 22.804688 L 56.113281 23.589844 L 55.410156 23.335938 C 55.28125 23.289062 55.171875 23.144531 55.171875 23.011719 L 55.171875 22.703125 C 55.171875 22.574219 55.28125 22.503906 55.410156 22.554688 " fill-opacity="1" fill-rule="nonzero"/><path fill="#dda62b" d="M 57.230469 23.992188 L 56.320312 23.664062 L 56.320312 22.882812 L 57.230469 23.210938 L 57.230469 23.992188 " fill-opacity="1" fill-rule="nonzero"/><path fill="#dda62b" d="M 57.4375 23.285156 L 58.046875 23.503906 C 58.179688 23.554688 58.285156 23.695312 58.285156 23.828125 L 58.285156 24.136719 C 58.285156 24.269531 58.179688 24.335938 58.046875 24.289062 L 57.4375 24.070312 L 57.4375 23.285156 " fill-opacity="1" fill-rule="nonzero"/><path fill="#dda62b" d="M 57.4375 25.519531 L 58.046875 25.738281 C 58.179688 25.785156 58.285156 25.929688 58.285156 26.058594 L 58.285156 26.371094 C 58.285156 26.5 58.179688 26.570312 58.046875 26.519531 L 57.4375 26.300781 L 57.4375 25.519531 " fill-opacity="1" fill-rule="nonzero"/><path fill="#dda62b" d="M 57.230469 26.226562 L 56.320312 25.898438 L 56.320312 25.113281 L 57.230469 25.441406 L 57.230469 26.226562 " fill-opacity="1" fill-rule="nonzero"/><path fill="#dda62b" d="M 55.410156 24.785156 L 56.113281 25.039062 L 56.113281 25.820312 L 55.410156 25.570312 C 55.28125 25.519531 55.171875 25.375 55.171875 25.246094 L 55.171875 24.9375 C 55.171875 24.804688 55.28125 24.738281 55.410156 24.785156 " fill-opacity="1" fill-rule="nonzero"/><path fill="#dda62b" d="M 57.230469 28.460938 L 56.320312 28.128906 L 56.320312 27.347656 L 57.230469 27.675781 L 57.230469 28.460938 " fill-opacity="1" fill-rule="nonzero"/><path fill="#dda62b" d="M 55.410156 27.019531 L 56.113281 27.273438 L 56.113281 28.054688 L 55.410156 27.800781 C 55.28125 27.753906 55.171875 27.609375 55.171875 27.480469 L 55.171875 27.167969 C 55.171875 27.039062 55.28125 26.972656 55.410156 27.019531 " fill-opacity="1" fill-rule="nonzero"/><path fill="#dda62b" d="M 58.089844 28.765625 C 58.113281 28.765625 58.136719 28.765625 58.15625 28.765625 C 58.234375 28.753906 58.285156 28.695312 58.285156 28.605469 L 58.285156 28.292969 C 58.285156 28.164062 58.179688 28.019531 58.046875 27.972656 L 57.4375 27.75 L 57.4375 28.535156 L 58.046875 28.753906 C 58.0625 28.757812 58.078125 28.761719 58.089844 28.765625 " fill-opacity="1" fill-rule="nonzero"/><path fill="#dda62b" d="M 52.703125 23.800781 L 52.199219 24.152344 L 52.199219 23.617188 L 52.703125 23.265625 L 52.703125 23.800781 " fill-opacity="1" fill-rule="nonzero"/><path fill="#dda62b" d="M 51.613281 24.03125 L 51.992188 23.761719 L 51.992188 24.300781 L 51.613281 24.566406 C 51.523438 24.628906 51.449219 24.609375 51.449219 24.519531 L 51.449219 24.304688 C 51.449219 24.214844 51.523438 24.09375 51.613281 24.03125 " fill-opacity="1" fill-rule="nonzero"/><path fill="#dda62b" d="M 52.910156 23.117188 L 53.417969 22.761719 C 53.507812 22.699219 53.582031 22.71875 53.582031 22.808594 L 53.582031 23.019531 C 53.582031 23.109375 53.507812 23.234375 53.417969 23.296875 L 52.910156 23.652344 L 52.910156 23.117188 " fill-opacity="1" fill-rule="nonzero"/><path fill="#dda62b" d="M 52.703125 25.984375 L 52.199219 26.339844 L 52.199219 25.804688 L 52.703125 25.449219 L 52.703125 25.984375 " fill-opacity="1" fill-rule="nonzero"/><path fill="#dda62b" d="M 51.613281 26.214844 L 51.992188 25.949219 L 51.992188 26.484375 L 51.613281 26.753906 C 51.523438 26.816406 51.449219 26.792969 51.449219 26.703125 L 51.449219 26.492188 C 51.449219 26.402344 51.523438 26.277344 51.613281 26.214844 " fill-opacity="1" fill-rule="nonzero"/><path fill="#dda62b" d="M 52.910156 25.304688 L 53.417969 24.949219 C 53.507812 24.882812 53.582031 24.90625 53.582031 24.996094 L 53.582031 25.207031 C 53.582031 25.296875 53.507812 25.417969 53.417969 25.484375 L 52.910156 25.839844 L 52.910156 25.304688 " fill-opacity="1" fill-rule="nonzero"/><path fill="#dda62b" d="M 52.910156 27.492188 L 53.417969 27.132812 C 53.507812 27.070312 53.582031 27.089844 53.582031 27.179688 L 53.582031 27.394531 C 53.582031 27.484375 53.507812 27.605469 53.417969 27.667969 L 52.910156 28.027344 L 52.910156 27.492188 " fill-opacity="1" fill-rule="nonzero"/><path fill="#dda62b" d="M 52.703125 28.171875 L 52.199219 28.527344 L 52.199219 27.988281 L 52.703125 27.636719 L 52.703125 28.171875 " fill-opacity="1" fill-rule="nonzero"/><path fill="#dda62b" d="M 51.835938 28.78125 L 51.992188 28.671875 L 51.992188 28.136719 L 51.613281 28.402344 C 51.523438 28.464844 51.449219 28.589844 51.449219 28.679688 L 51.449219 28.789062 C 51.578125 28.785156 51.707031 28.785156 51.835938 28.78125 " fill-opacity="1" fill-rule="nonzero"/><g clip-path="url(#f4bac9935b)"><path fill="#dda62b" d="M 52.40625 6.433594 C 52.492188 6.433594 52.574219 6.390625 52.617188 6.3125 L 54.941406 2.324219 L 56.632812 5.859375 C 56.6875 5.976562 56.835938 6.027344 56.957031 5.972656 C 57.078125 5.914062 57.128906 5.773438 57.070312 5.652344 L 55.179688 1.703125 C 55.140625 1.625 55.058594 1.570312 54.96875 1.566406 C 54.882812 1.5625 54.796875 1.609375 54.75 1.6875 L 52.199219 6.074219 C 52.128906 6.1875 52.171875 6.335938 52.285156 6.402344 C 52.324219 6.425781 52.367188 6.433594 52.40625 6.433594 " fill-opacity="1" fill-rule="nonzero"/></g><g clip-path="url(#07cc8fe970)"><path fill="#dda62b" d="M 56.28125 27.335938 C 44.164062 27.335938 33.855469 30.039062 30.03125 33.808594 C 36.386719 31.234375 45.789062 29.609375 56.28125 29.609375 C 66.777344 29.609375 76.179688 31.234375 82.53125 33.808594 C 78.710938 30.039062 68.402344 27.335938 56.28125 27.335938 " fill-opacity="1" fill-rule="nonzero"/></g><g fill="#000000" fill-opacity="1"><g transform="translate(3.919364, 40.85068)"><g><path d="M 0.402344 -0.390625 C 1.226562 0.0351562 1.988281 0.078125 2.328125 0.0507812 C 3.472656 -0.0078125 4.171875 -0.785156 4.171875 -1.800781 C 4.171875 -2.773438 3.351562 -3.316406 2.40625 -3.667969 C 2.054688 -3.785156 1.757812 -3.941406 1.722656 -4.28125 C 1.695312 -4.621094 1.894531 -4.9375 2.328125 -4.964844 C 2.515625 -4.972656 2.898438 -4.980469 3.574219 -4.707031 L 3.726562 -5.882812 C 2.941406 -6.15625 2.523438 -6.15625 2.207031 -6.140625 C 1.195312 -6.089844 0.484375 -5.304688 0.484375 -4.28125 C 0.484375 -3.257812 1.339844 -2.773438 2.292969 -2.421875 C 2.636719 -2.300781 2.898438 -2.148438 2.925781 -1.800781 C 2.960938 -1.46875 2.652344 -1.210938 2.292969 -1.183594 C 2.011719 -1.160156 1.253906 -1.175781 0.554688 -1.671875 Z M 0.402344 -0.390625 "/></g></g></g><g fill="#000000" fill-opacity="1"><g transform="translate(9.616261, 40.85068)"><g><path d="M 0.136719 0 L 1.519531 0 L 1.757812 -0.65625 L 3.777344 -0.65625 L 4.023438 0 L 5.398438 0 L 2.832031 -6.320312 L 2.703125 -6.320312 Z M 2.199219 -1.800781 L 2.773438 -3.386719 L 3.324219 -1.800781 Z M 2.199219 -1.800781 "/></g></g></g><g fill="#000000" fill-opacity="1"><g transform="translate(16.370677, 40.85068)"><g><path d="M 1.902344 -3.316406 L 4.988281 0.128906 L 5.3125 0.128906 L 5.3125 -6.089844 L 4.085938 -6.089844 L 4.085938 -2.644531 L 1.007812 -6.226562 L 0.683594 -6.226562 L 0.683594 0 L 1.902344 0 Z M 1.902344 -3.316406 "/></g></g></g><g fill="#000000" fill-opacity="1"><g transform="translate(23.560035, 40.85068)"><g><path d="M 2.90625 0 L 2.90625 -4.878906 L 4.425781 -4.878906 L 4.425781 -6.089844 L 0.171875 -6.089844 L 0.171875 -4.878906 L 1.6875 -4.878906 L 1.6875 0 Z M 2.90625 0 "/></g></g></g><g fill="#000000" fill-opacity="1"><g transform="translate(29.410443, 40.85068)"><g><path d="M 5.058594 -2.125 L 5.058594 -6.097656 L 3.847656 -6.097656 L 3.847656 -2.132812 C 3.847656 -0.851562 1.867188 -0.851562 1.867188 -2.132812 L 1.867188 -6.097656 L 0.648438 -6.097656 L 0.648438 -2.125 C 0.648438 0.777344 5.058594 0.777344 5.058594 -2.125 Z M 5.058594 -2.125 "/></g></g></g><g fill="#000000" fill-opacity="1"><g transform="translate(36.318369, 40.85068)"><g><path d="M 3.71875 0 L 5.101562 0 L 3.683594 -2.515625 C 5.476562 -3.035156 5.261719 -6.097656 3.085938 -6.097656 L 0.683594 -6.097656 L 0.683594 0 L 1.902344 0 L 1.902344 -2.328125 L 2.492188 -2.328125 Z M 1.902344 -3.511719 L 1.902344 -4.878906 L 2.976562 -4.878906 C 3.804688 -4.878906 3.804688 -3.511719 2.976562 -3.511719 Z M 1.902344 -3.511719 "/></g></g></g><g fill="#000000" fill-opacity="1"><g transform="translate(42.731647, 40.85068)"><g><path d="M 1.902344 0 L 1.902344 -6.097656 L 0.683594 -6.097656 L 0.683594 0 Z M 1.902344 0 "/></g></g></g><g fill="#000000" fill-opacity="1"><g transform="translate(46.509679, 40.85068)"><g><path d="M 3.617188 0.0859375 C 7.8125 0.0859375 7.8125 -6.199219 3.617188 -6.199219 C -0.578125 -6.199219 -0.578125 0.0859375 3.617188 0.0859375 Z M 3.617188 -1.175781 C 1.175781 -1.175781 1.175781 -4.945312 3.617188 -4.945312 C 6.054688 -4.945312 6.054688 -1.175781 3.617188 -1.175781 Z M 3.617188 -1.175781 "/></g></g></g><g fill="#000000" fill-opacity="1"><g transform="translate(54.918591, 40.85068)"><g/></g></g><g fill="#000000" fill-opacity="1"><g transform="translate(58.526054, 40.85068)"><g><path d="M 3.480469 -3.511719 L 1.074219 -6.191406 L 0.683594 -6.191406 L 0.683594 0 L 1.917969 0 L 1.917969 -3.402344 L 3.480469 -1.765625 L 5.039062 -3.402344 L 5.03125 0 L 6.269531 0 L 6.269531 -6.191406 L 5.882812 -6.191406 Z M 3.480469 -3.511719 "/></g></g></g><g fill="#000000" fill-opacity="1"><g transform="translate(66.670581, 40.85068)"><g><path d="M 3.617188 0.0859375 C 7.8125 0.0859375 7.8125 -6.199219 3.617188 -6.199219 C -0.578125 -6.199219 -0.578125 0.0859375 3.617188 0.0859375 Z M 3.617188 -1.175781 C 1.175781 -1.175781 1.175781 -4.945312 3.617188 -4.945312 C 6.054688 -4.945312 6.054688 -1.175781 3.617188 -1.175781 Z M 3.617188 -1.175781 "/></g></g></g><g fill="#000000" fill-opacity="1"><g transform="translate(75.07949, 40.85068)"><g><path d="M 2.5 -6.097656 L 0.683594 -6.097656 L 0.683594 0 L 2.5 0 C 6.558594 0 6.558594 -6.097656 2.5 -6.097656 Z M 2.5 -4.878906 C 4.871094 -4.878906 4.871094 -1.21875 2.5 -1.21875 L 1.902344 -1.21875 L 1.902344 -4.878906 Z M 2.5 -4.878906 "/></g></g></g><g fill="#000000" fill-opacity="1"><g transform="translate(82.268845, 40.85068)"><g><path d="M 3.835938 0 L 3.835938 -1.21875 L 1.902344 -1.21875 L 1.902344 -2.4375 L 3.503906 -2.4375 L 3.503906 -3.660156 L 1.902344 -3.660156 L 1.902344 -4.878906 L 3.734375 -4.878906 L 3.734375 -6.097656 L 0.683594 -6.097656 L 0.683594 0 Z M 3.835938 0 "/></g></g></g><g fill="#000000" fill-opacity="1"><g transform="translate(87.752545, 40.85068)"><g><path d="M 3.71875 0 L 5.101562 0 L 3.683594 -2.515625 C 5.476562 -3.035156 5.261719 -6.097656 3.085938 -6.097656 L 0.683594 -6.097656 L 0.683594 0 L 1.902344 0 L 1.902344 -2.328125 L 2.492188 -2.328125 Z M 1.902344 -3.511719 L 1.902344 -4.878906 L 2.976562 -4.878906 C 3.804688 -4.878906 3.804688 -3.511719 2.976562 -3.511719 Z M 1.902344 -3.511719 "/></g></g></g><g fill="#000000" fill-opacity="1"><g transform="translate(94.165823, 40.85068)"><g><path d="M 1.902344 -3.316406 L 4.988281 0.128906 L 5.3125 0.128906 L 5.3125 -6.089844 L 4.085938 -6.089844 L 4.085938 -2.644531 L 1.007812 -6.226562 L 0.683594 -6.226562 L 0.683594 0 L 1.902344 0 Z M 1.902344 -3.316406 "/></g></g></g><g fill="#000000" fill-opacity="1"><g transform="translate(101.355184, 40.85068)"><g><path d="M 3.617188 0.0859375 C 7.8125 0.0859375 7.8125 -6.199219 3.617188 -6.199219 C -0.578125 -6.199219 -0.578125 0.0859375 3.617188 0.0859375 Z M 3.617188 -1.175781 C 1.175781 -1.175781 1.175781 -4.945312 3.617188 -4.945312 C 6.054688 -4.945312 6.054688 -1.175781 3.617188 -1.175781 Z M 3.617188 -1.175781 "/></g></g></g></svg>